<svg id="Camada_1" data-name="Camada 1" xmlns="http://www.w3.org/2000/svg" viewBox="0 0 1382.28 5644"><defs><style>.cls-1{fill:#fcbf49;}.cls-2{fill:#1b1464;}.cls-12,.cls-15,.cls-3{fill:#003049;}.cls-4{fill:#ffd6aa;}.cls-26,.cls-5,.cls-8{fill:none;}.cls-5{stroke:#000;stroke-width:6px;}.cls-26,.cls-5{stroke-linecap:round;}.cls-5,.cls-8{stroke-miterlimit:10;}.cls-6{fill:#ffb6aa;}.cls-17,.cls-7{fill:#d62828;}.cls-8{stroke:#fff;stroke-width:12px;}.cls-9{fill:#b82828;}.cls-10{fill:#eae2b7;}.cls-11{fill:#9ae2b7;}.cls-12{font-size:60px;font-family:AxiaBlack-Regular, Axia;}.cls-13{letter-spacing:-0.03em;}.cls-14{letter-spacing:-0.01em;}.cls-15{font-size:100px;}.cls-15,.cls-17,.cls-19{font-family:Blenny-Black, Blenny;font-weight:800;}.cls-16{letter-spacing:-0.01em;}.cls-17,.cls-19{font-size:200px;}.cls-18{letter-spacing:-0.02em;}.cls-19{fill:#f74346;}.cls-20{letter-spacing:-0.05em;}.cls-21{letter-spacing:0.14em;}.cls-22{fill:#f77f00;}.cls-23{letter-spacing:-0.04em;}.cls-24{letter-spacing:0.02em;}.cls-25{letter-spacing:0.01em;}.cls-26{stroke:#f74346;stroke-linejoin:round;stroke-width:15px;}</style></defs><rect class="cls-1" x="18.28" width="1280" height="1240"/><path class="cls-2" d="M311.55,561.84c27.63,5.33,50.16,9.34,70-3,25.72-16,16.4-40.51,40-65,29.34-30.46,60.24-9.66,120-37,19.21-8.79,73.12-33.46,78-72,5.92-46.79-65.32-75.31-56-104,12.6-38.81,149.79-7.6,172-57,15.43-34.33-39.45-74.68-24-100,22.49-36.86,147.64,34.21,213-17,31.3-24.53,38.62-69.06,39-107H2.55c-6.27,14.1-46.84,109.29,0,198,8.05,15.25,25.12,47.58,61,70,52.25,32.65,100.66,16.93,109,39,10.31,27.3-62.11,55.71-60,107,1.21,29.56,26.48,49.71,72,86C243.18,546.6,293.36,558.33,311.55,561.84Z" transform="translate(19.73 0.16)"/><path class="cls-3" d="M159.41,432c16.41-39.27,58.35-77.16,44-123.35a5.11,5.11,0,0,1-.23-1.11c-4.77-2-9.58-4-14.39-5.73-24.44-9.06-49.61-15.12-74.58-22.4-24.39-7.12-49.6-17.23-65.75-37.8-31.66-40.34-15.21-94,5.83-135,11.88-23.18,26.26-45,41.05-66.4C104.47,27.09,114,14.16,122.82.84H3.06c-6.26,14.1-46.83,109.29,0,198,8.06,15.25,25.13,47.58,61,70,52.26,32.65,100.67,16.93,109,39,10.32,27.3-62.11,55.71-60,107,.87,21,13.92,37.3,37.76,58A115.06,115.06,0,0,1,159.41,432Z" transform="translate(19.73 0.16)"/><path class="cls-3" d="M282.75,409.63c-2.08-26.72-11.09-51.73-30.37-70.83a134.86,134.86,0,0,0-29.82-21.87c2.2,17.33,5.46,34.51,8.46,51.72,5.69,32.64,9.67,65.47,4.66,98.47-3.16,20.81-5.91,41.67-8.77,62.52,8.65,5.06,16.93,9.38,24.72,13C269,499.87,286.44,456.9,282.75,409.63Z" transform="translate(19.73 0.16)"/><path class="cls-3" d="M431.5,323.59c-4.83-23-24.71-38.93-44.27-49.72-32.56-18-70.56-24.41-106.85-30.2-3.17-.51-6.45-1-9.8-1.5,7.22,3.21,14.59,6.13,21.69,9.38,15.4,7,29.71,16.18,40.25,29.68,18.28,23.39,23.6,54.62,26.8,83.35,1.65,14.77,3.59,29.81,1.35,44.59-2.49,16.45-9.65,31.95-18.33,46-8.58,13.89-19.21,26.11-28.74,39.29-6.31,8.74-12.83,17.34-19,26.18-7.12,10.17-14,20.66-19.4,31.88a245.42,245.42,0,0,0,30.33,9,73.25,73.25,0,0,1,1.05-11.35C310,529.73,321.4,511,333,494.25c14.1-20.36,30.14-39.3,45.63-58.58,14.76-18.37,29.53-37.11,40.76-57.91C428.16,361.51,435.45,342.3,431.5,323.59Z" transform="translate(19.73 0.16)"/><path class="cls-3" d="M419.83,183c26.21,8.82,54.06,16.72,65.7,44.58,11.34,27.16,9.36,58.35,5.68,86.87-3.58,27.68-8.58,55.2-18.34,81.44-.23.61-.47,1.21-.7,1.82,28.09-24.57,54.68-52.72,69.3-87.35a132.55,132.55,0,0,0,10.24-55.32c-.5-20.37-5.57-40.28-10.74-59.87s-10.67-39.34-13.08-59.61c-2.17-18.35-2-38.6,4.92-56,10.85-27.38,36.65-45.09,62.07-57.73,16.65-8.28,34-14.76,51.45-21H366.22a213.48,213.48,0,0,0-30,16.34C326.13,23.81,316,31.67,309.1,41.75c-12.5,18.36-8.13,42,2.45,60.11,12.1,20.7,31.08,37.17,50.59,50.68C379.85,164.81,399.33,176.12,419.83,183Z" transform="translate(19.73 0.16)"/><path class="cls-3" d="M729.46.84c-14.27,9.2-28.57,18.39-42.21,28.52-24.8,18.44-48,41.08-59.3,70.46-7,18.08-11.21,37.49-15.83,56.27-4.46,18.1-8.74,36.26-13.66,54.24,2.26-1.21,4.48-2.51,6.63-3.94,11.25-7.46,20.21-17.81,27.5-29.09C661,133.28,671.56,71,724.46,48c27.65-12,57.94-7.38,86.89-13.19,25.45-5.1,49-16.08,67.18-34Z" transform="translate(19.73 0.16)"/><path class="cls-3" d="M892.09.84C870.49,25.5,840.88,40,808.24,45.51c-28.94,4.92-59.68.15-86.31,14.83-24.53,13.51-39.6,38.76-51.16,63.36S649,174.56,631.41,195.78c-18.25,22.05-43.78,32.78-71.78,35.9h-.22c2.55,16.25,3.26,32.73.83,49.06-2.65,17.77-9.17,34.84-17.93,50.48-18,32.09-44.83,58.39-72.75,81.87a5,5,0,0,1-4.43,1.11A227.54,227.54,0,0,1,437.08,459c-16.51,20.57-36.26,37.87-56.16,55.05-16.62,14.35-37.25,31.29-45.15,52.89,17.29,2.21,32.45,1.56,46.29-7,25.73-16,16.41-40.51,40-65,18-18.69,36.6-18.08,62.08-21.14q6.93-4.5,13.65-9.33c46.08-33.23,86.33-81.27,90.95-139.44-15.15-15.67-29.13-29.36-24.68-43.09,12.61-38.81,149.8-7.6,172-57,15.43-34.33-39.45-74.68-24-100,22.5-36.86,147.65,34.21,213-17,31.31-24.53,38.62-69.06,39-107Z" transform="translate(19.73 0.16)"/><path class="cls-3" d="M589.67,367.32c-15.46,41.83-46.2,75.83-82.09,102.39a180.31,180.31,0,0,0,34.48-11.87c19.22-8.79,73.13-33.46,78-72,2.53-19.94-9-36.56-22.26-51.3A153.85,153.85,0,0,1,589.67,367.32Z" transform="translate(19.73 0.16)"/><path class="cls-4" d="M193.55,394.84c-6.13,12.9-26.35,55.48-10,92,11.64,26,34.18,31.86,46,62a125.33,125.33,0,0,1,7,28,108.48,108.48,0,0,1,0,24c1.79,2,12,13.17,29,14a42.18,42.18,0,0,0,29-10c.22-7.67.73-19.1,2-33,1.15-12.64,1.73-19,3-23,6.27-20,26.69-22.37,42-36,25.36-22.59,29.35-69.49,16-104-3.43-8.85-17.92-42.54-55-57-24.92-9.72-60-10.72-85,9C205,370.73,199.53,382.24,193.55,394.84Z" transform="translate(19.73 0.16)"/><path class="cls-2" d="M241.55,392.84c-.69-5.57-23.49-13.61-34-2-6.83,7.53-4.31,18.74-4,20C234.35,401.73,242,396.27,241.55,392.84Z" transform="translate(19.73 0.16)"/><path class="cls-2" d="M292.86,397c.69-5.56,23.48-13.6,34-2,6.83,7.54,4.3,18.74,4,20C300.06,405.94,292.44,400.48,292.86,397Z" transform="translate(19.73 0.16)"/><path class="cls-5" d="M201.84,426.52a25.75,25.75,0,0,0,23.61,11c11.13-1.21,17.19-9.71,18.1-11" transform="translate(19.73 0.16)"/><path class="cls-5" d="M288.48,432a25.77,25.77,0,0,0,23.61,11c11.14-1.21,17.2-9.71,18.1-11" transform="translate(19.73 0.16)"/><ellipse class="cls-6" cx="350.28" cy="466.5" rx="25" ry="13.5"/><ellipse class="cls-6" cx="226.28" cy="466.5" rx="25" ry="13.5"/><path d="M261.73,498.33a49.73,49.73,0,0,0,43.47-9.26c1.5-1.21-.63-3.32-2.12-2.12a46.63,46.63,0,0,1-40.55,8.49,1.5,1.5,0,0,0-.8,2.89Z" transform="translate(19.73 0.16)"/><ellipse class="cls-4" cx="410.78" cy="453" rx="11.5" ry="21"/><circle class="cls-7" cx="259.78" cy="159.5" r="73.5"/><path class="cls-8" d="M298.67,116.39a326.5,326.5,0,0,1,65.45-19.23c21.67-4,48.29-8.83,52.78,0,3.88,7.62-10,22.91-31.67,42.74C333.85,187,277.79,237.15,188.88,256.37c-20,4.33-55.94,12.09-62.28,0-7.95-15.16,35.28-52.7,47.5-63" transform="translate(19.73 0.16)"/><path class="cls-9" d="M260.24,167c14-3.14,28.49-8,35.57-21.51a104.38,104.38,0,0,0,8.61-23.35,73.71,73.71,0,0,0-13.26-16.55,315.74,315.74,0,0,1-15.56,33.48c-6,10.75-13.17,21.19-22.29,29.55C255.61,168.07,257.92,167.52,260.24,167Z" transform="translate(19.73 0.16)"/><path class="cls-9" d="M198,219.61c36-21.37,77.75-31.05,114.84-50.07a74.56,74.56,0,0,0,.71-10.2A73.37,73.37,0,0,0,309.74,136a99.65,99.65,0,0,1-7.27,16.36c-7.34,13-21.82,19.67-35.72,23.16-7.46,1.88-15.06,3.15-22.5,5.12a220.1,220.1,0,0,0-24.53,8.49A230.65,230.65,0,0,0,184,206.91,73.63,73.63,0,0,0,198,219.61Z" transform="translate(19.73 0.16)"/><path class="cls-9" d="M220.38,219c25.94-11.92,55.09-17.2,83.31-22.88a73.49,73.49,0,0,0,6.25-14C280.82,195.83,249.38,204.9,220.38,219Z" transform="translate(19.73 0.16)"/><path class="cls-9" d="M195.46,189.12a222.56,222.56,0,0,1-23.07-1A73.48,73.48,0,0,0,178,198.78Q186.52,193.56,195.46,189.12Z" transform="translate(19.73 0.16)"/><path class="cls-9" d="M222.77,140a126.56,126.56,0,0,0,34.16-27.33c5.56-6.31,10.66-13,15.65-19.76-2-1-4.09-1.84-6.2-2.62-1.08.59-2.16,1.19-3.23,1.81-18.67,10.86-34.8,25.46-53.24,36.67-12.72,7.73-26.36,13.07-40.68,14.92a73.79,73.79,0,0,0-1.68,15.62c0,.71,0,1.42,0,2.12C186.62,155.94,205.44,149.63,222.77,140Z" transform="translate(19.73 0.16)"/><path class="cls-9" d="M263,119.77a134.27,134.27,0,0,1-34.75,28.09c-19,10.78-39.73,17.66-60.68,23.71q.52,3.17,1.32,6.24c27,2.41,55.65,3,76.75-16.61,17.75-16.53,27.44-39.95,36.47-62.13-.59-.41-1.19-.82-1.79-1.21C274.8,105.36,269.17,112.79,263,119.77Z" transform="translate(19.73 0.16)"/><path class="cls-9" d="M184.23,130.21c19.92-6.89,36.52-20.88,53.36-33.09,5-3.6,10-7.08,15.25-10.33a73.53,73.53,0,0,0-80.53,46.5A76.79,76.79,0,0,0,184.23,130.21Z" transform="translate(19.73 0.16)"/><circle class="cls-10" cx="491.28" cy="317" r="50"/><path class="cls-11" d="M490.15,271.42q-32.07,12-63.76,24.94a49.82,49.82,0,0,0-4.84,21.48c0,1.11.05,2.2.12,3.29,26.91-15.68,54.48-29.9,83.71-40.09A49.88,49.88,0,0,0,490.15,271.42Z" transform="translate(19.73 0.16)"/><path class="cls-11" d="M437.67,281.08q16.83-6.75,33.76-13.24A49.8,49.8,0,0,0,437.67,281.08Z" transform="translate(19.73 0.16)"/><path class="cls-11" d="M440.92,341c26.8-10.84,54.15-21,78.94-36a49.61,49.61,0,0,0-7.35-15.79A345.87,345.87,0,0,0,478,302.89a609.23,609.23,0,0,0-54.49,28.81A49.64,49.64,0,0,0,430,345.55Q435.41,343.24,440.92,341Z" transform="translate(19.73 0.16)"/><path class="cls-11" d="M490.35,364.17c1.16-.47,2.3-1,3.42-1.54Z" transform="translate(19.73 0.16)"/><path class="cls-11" d="M515.8,341.11a49.81,49.81,0,0,0,5.75-23.27q0-1.12-.06-2.22a340.61,340.61,0,0,1-36.21,18c-16.07,6.95-32.27,13.55-48.44,20.22a49.91,49.91,0,0,0,23.29,12.7C478.92,358.56,497.51,350.16,515.8,341.11Z" transform="translate(19.73 0.16)"/><path class="cls-10" d="M347.39,308.58a1.5,1.5,0,0,0,0-3,1.5,1.5,0,0,0,0,3Z" transform="translate(19.73 0.16)"/><path class="cls-10" d="M389.15,242.34a1.5,1.5,0,0,0,0-3,1.5,1.5,0,0,0,0,3Z" transform="translate(19.73 0.16)"/><path class="cls-10" d="M573.47,371.94a1.5,1.5,0,0,0,0-3,1.5,1.5,0,0,0,0,3Z" transform="translate(19.73 0.16)"/><path class="cls-10" d="M661.31,232.26a1.5,1.5,0,0,0,0-3,1.5,1.5,0,0,0,0,3Z" transform="translate(19.73 0.16)"/><path class="cls-10" d="M223.55,239.46a1.5,1.5,0,0,0,0-3,1.5,1.5,0,0,0,0,3Z" transform="translate(19.73 0.16)"/><path class="cls-10" d="M141,99.86a1.5,1.5,0,0,0,0-3,1.5,1.5,0,0,0,0,3Z" transform="translate(19.73 0.16)"/><path class="cls-10" d="M187,86.9a1.5,1.5,0,0,0,0-3,1.5,1.5,0,0,0,0,3Z" transform="translate(19.73 0.16)"/><path class="cls-10" d="M161.63,360.42a1.5,1.5,0,0,0,0-3,1.5,1.5,0,0,0,0,3Z" transform="translate(19.73 0.16)"/><path class="cls-10" d="M379.07,534.66a1.5,1.5,0,0,0,0-3,1.5,1.5,0,0,0,0,3Z" transform="translate(19.73 0.16)"/><path class="cls-10" d="M527.39,436.74a1.5,1.5,0,0,0,0-3,1.5,1.5,0,0,0,0,3Z" transform="translate(19.73 0.16)"/><path class="cls-10" d="M671.43,86.82a1.5,1.5,0,0,0,0-3,1.5,1.5,0,0,0,0,3Z" transform="translate(19.73 0.16)"/><path class="cls-10" d="M378.63,159a6,6,0,1,0-6-6,6.07,6.07,0,0,0,6,6Z" transform="translate(19.73 0.16)"/><path class="cls-10" d="M604.71,156.12a6,6,0,1,0-6-6,6.07,6.07,0,0,0,6,6Z" transform="translate(19.73 0.16)"/><path class="cls-10" d="M102.59,327.48a6,6,0,1,0-6-6,6.07,6.07,0,0,0,6,6Z" transform="translate(19.73 0.16)"/><path class="cls-10" d="M167.39,333.24a6,6,0,1,0-6-6,6.07,6.07,0,0,0,6,6Z" transform="translate(19.73 0.16)"/><path class="cls-10" d="M695.87,258.36a6,6,0,1,0-6-6,6.07,6.07,0,0,0,6,6Z" transform="translate(19.73 0.16)"/><path class="cls-10" d="M881.19,156.12a6,6,0,1,0-6-6,6.07,6.07,0,0,0,6,6Z" transform="translate(19.73 0.16)"/><path class="cls-10" d="M776.55,124.44a6,6,0,1,0-6-6,6.07,6.07,0,0,0,6,6Z" transform="translate(19.73 0.16)"/><path class="cls-10" d="M386.27,314.52a6,6,0,1,0-6-6,6.07,6.07,0,0,0,6,6Z" transform="translate(19.73 0.16)"/><path class="cls-7" d="M234.55,571.84c-26.66,2.45-32,4.71-36,9-16.16,17.16-.15,54.18,2,59a119.54,119.54,0,0,0-50,10c-63.05,28-76.56,103.22-78,112,25,41.24,54.68,60.23,72,69,77.76,39.38,185.46,13.77,270-65,0-10.91-1.31-59.38-39-96a127.25,127.25,0,0,0-51-30c3-1.34,24.76-11.44,26-28,1.68-22.5-36-37.42-40-39C294.17,566.36,274.3,568.18,234.55,571.84Z" transform="translate(19.73 0.16)"/><rect class="cls-10" x="19.28" y="1078" width="1280" height="1154"/><path class="cls-10" d="M-.45,726.84c56.75-20.12,148.74-45.32,263-43,78.3,1.59,270.66,18.2,437,149,119.85,94.24,107.61,154.52,209,190,85.05,29.76,216.16,30.22,301-54,46.41-46.08,62.67-101.32,69-132v322l-1280-19Q-1,933.34-.45,726.84Z" transform="translate(19.73 0.16)"/><path class="cls-7" d="M234.47,572.07c-26.66,2.45-32,4.71-36,9-16.16,17.16-.15,54.18,2,59a119.7,119.7,0,0,0-50,10c-63,28-76.56,103.22-78,112,25,41.24,54.68,60.23,72,69,77.76,39.38,185.46,13.77,270-65,0-10.9-1.31-59.38-39-96a127.25,127.25,0,0,0-51-30c3-1.34,24.76-11.44,26-28,1.68-22.5-36-37.42-40-39C294.09,566.59,274.22,568.42,234.47,572.07Z" transform="translate(19.73 0.16)"/><text class="cls-12" transform="translate(406.92 1201.55)">O que<tspan class="cls-13" x="141.72" y="0"> </tspan><tspan class="cls-14" x="151.92" y="0">v</tspan><tspan x="179.64" y="0">ocê procura?</tspan></text><rect class="cls-10" x="19.28" y="4490" width="1280" height="1154"/><path class="cls-3" d="M-.45,4773.84a872.21,872.21,0,0,1,242,9c116,20.76,257.23,46,329,151,68,99.54,1.42,165,69,259,89.37,124.27,286.46,121.71,341,121,138.35-1.8,243.47-55.41,299-90v-514H-.45Z" transform="translate(19.73 0.16)"/><text class="cls-15" transform="translate(768.56 372.62)"><tspan class="cls-16">A</tspan><tspan x="67.7" y="0">che a</tspan></text><text class="cls-17" transform="translate(646.16 528.16)">A<tspan class="cls-18" x="137.4" y="0">R</tspan><tspan x="271.8" y="0">TE</tspan></text><text class="cls-19" transform="translate(634.77 532.17)">A<tspan class="cls-18" x="137.4" y="0">R</tspan><tspan x="271.8" y="0">TE</tspan></text><text class="cls-15" transform="translate(692.79 628.78)">que há em <tspan class="cls-20" x="128.1" y="90">v</tspan><tspan x="190.9" y="90">ocê</tspan></text><rect class="cls-7" x="19.28" y="1865" width="1280" height="697"/><text class="cls-15" transform="translate(19.28 1887.7)"><tspan class="cls-21" xml:space="preserve">		</tspan><tspan x="72" y="0">Sobre Arte:</tspan></text><rect class="cls-3" x="19.28" y="3956" width="1280" height="768"/><rect class="cls-22" x="19.28" y="2563" width="1280" height="697"/><text class="cls-15" transform="translate(19.28 2585.7)"><tspan class="cls-21" xml:space="preserve">		</tspan><tspan class="cls-23" x="72" y="0">F</tspan><tspan x="134.5" y="0">azer Arte:</tspan></text><rect class="cls-1" x="19.28" y="3259" width="1280" height="697"/><text class="cls-15" transform="translate(19.28 3281.7)"><tspan class="cls-21" xml:space="preserve">		</tspan><tspan class="cls-24" x="72" y="0">M</tspan><tspan x="168.1" y="0">ateria</tspan><tspan class="cls-25" x="474.2" y="0">i</tspan><tspan x="512.4" y="0">s:</tspan></text><path class="cls-26" d="M1384.05,2040.34" transform="translate(19.73 0.16)"/></svg>